<svg xmlns="http://www.w3.org/2000/svg" viewBox="0 0 48 48"><title>10-product idea</title><g id="_10-product_idea" data-name="10-product idea"><path d="M25,34H3a3,3,0,0,1-3-3V3A3,3,0,0,1,3,0H33a3,3,0,0,1,3,3V14H34V3a1,1,0,0,0-1-1H3A1,1,0,0,0,2,3V31a1,1,0,0,0,1,1H25Z"/><path d="M30,16a1,1,0,0,1-.447-.105L26,14.118,22.447,15.9A1,1,0,0,1,21,15V1h2V13.382l2.553-1.277a1,1,0,0,1,.894,0L29,13.382V1h2V15a1,1,0,0,1-1,1Z"/><path d="M9,30H5a1,1,0,0,1-1-1V25H6v3H9Z"/><rect x="11" y="28" width="2" height="2"/><rect x="4" y="4" width="6" height="2"/><rect x="4" y="8" width="10" height="2"/><path d="M40,42H34a1,1,0,0,1-1-1V37.9a1,1,0,0,0-.6-.906,11,11,0,1,1,9.2,0,1,1,0,0,0-.6.907V41A1,1,0,0,1,40,42Zm-5-2h4V37.9a3.017,3.017,0,0,1,1.762-2.724A9,9,0,0,0,43,20.292a9,9,0,1,0-9.76,14.887A3.01,3.01,0,0,1,35,37.9Z"/><path d="M38,48H36a3,3,0,0,1-3-3V41a1,1,0,0,1,1-1h6a1,1,0,0,1,1,1v4A3,3,0,0,1,38,48Zm-3-6v3a1,1,0,0,0,1,1h2a1,1,0,0,0,1-1V42Z"/><rect x="34" y="43" width="6" height="2"/><path d="M38,41H36V28a1,1,0,0,1,1-1h3a1,1,0,0,0,1-1V25h2v1a3,3,0,0,1-3,3H38Z"/><path d="M37,29H34a3,3,0,0,1-3-3V25h2v1a1,1,0,0,0,1,1h3Z"/><path d="M31,45H18a5.006,5.006,0,0,1-5-5V38.414l-1.293,1.293-1.414-1.414,3-3A1,1,0,0,1,15,36v4a3,3,0,0,0,3,3H31Z"/><rect x="14.5" y="35.379" width="2" height="4.243" transform="translate(-21.977 21.944) rotate(-45)"/></g></svg>