<svg xmlns="http://www.w3.org/2000/svg" xmlns:xlink="http://www.w3.org/1999/xlink" version="1.1" width="1000" height="1000" viewBox="0 0 1000 1000" xml:space="preserve">
<desc>Created with Fabric.js 3.5.0</desc>
<defs>
</defs>
<rect x="0" y="0" width="100%" height="100%" fill="#ffffff"/>
<g transform="matrix(26.3158 0 0 22.7273 500.0001 500.0003)" id="916614">
<path style="stroke: none; stroke-width: 1; stroke-dasharray: none; stroke-linecap: butt; stroke-dashoffset: 0; stroke-linejoin: miter; stroke-miterlimit: 4; is-custom-font: none; font-file-url: none; fill: rgb(0,0,0); fill-rule: evenodd; opacity: 1;" vector-effect="non-scaling-stroke" transform=" translate(-9.5, -11)" d="M 14 0 L 2 0 C 0.9 0 0 0.9 0 2 L 0 16 L 2 16 L 2 2 L 14 2 L 14 0 L 14 0 Z M 17 4 L 6 4 C 4.9 4 4 4.9 4 6 L 4 20 C 4 21.1 4.9 22 6 22 L 17 22 C 18.1 22 19 21.1 19 20 L 19 6 C 19 4.9 18.1 4 17 4 L 17 4 Z M 17 20 L 6 20 L 6 6 L 17 6 L 17 20 L 17 20 Z" stroke-linecap="round"/>
</g>
</svg>