<svg xmlns="http://www.w3.org/2000/svg" xmlns:xlink="http://www.w3.org/1999/xlink" width="500" zoomAndPan="magnify" viewBox="0 0 375 374.999991" height="500" preserveAspectRatio="xMidYMid meet" version="1.0"><defs><clipPath id="18514c70c4"><path d="M 25.171875 0 L 349.828125 0 L 349.828125 375 L 25.171875 375 Z M 25.171875 0 " clip-rule="nonzero"/></clipPath></defs><g clip-path="url(#18514c70c4)"><path fill="#000000" d="M 349.921875 337.429688 C 349.921875 338.65625 349.863281 339.878906 349.742188 341.101562 C 349.621094 342.324219 349.441406 343.535156 349.203125 344.738281 C 348.960938 345.945312 348.664062 347.132812 348.308594 348.308594 C 347.953125 349.484375 347.539062 350.636719 347.070312 351.773438 C 346.601562 352.90625 346.074219 354.015625 345.496094 355.097656 C 344.917969 356.179688 344.289062 357.230469 343.605469 358.25 C 342.925781 359.273438 342.195312 360.257812 341.417969 361.207031 C 340.636719 362.15625 339.816406 363.0625 338.945312 363.929688 C 338.078125 364.800781 337.171875 365.625 336.222656 366.402344 C 335.273438 367.179688 334.289062 367.910156 333.269531 368.59375 C 332.25 369.273438 331.195312 369.90625 330.113281 370.484375 C 329.03125 371.0625 327.925781 371.585938 326.789062 372.054688 C 325.65625 372.527344 324.503906 372.941406 323.328125 373.296875 C 322.152344 373.652344 320.964844 373.949219 319.761719 374.191406 C 318.558594 374.429688 317.34375 374.609375 316.125 374.730469 C 314.902344 374.851562 313.679688 374.910156 312.449219 374.910156 L 137.585938 374.910156 C 136.359375 374.910156 135.132812 374.851562 133.914062 374.730469 C 132.691406 374.609375 131.480469 374.429688 130.273438 374.191406 C 129.070312 373.949219 127.882812 373.652344 126.707031 373.296875 C 125.535156 372.941406 124.378906 372.527344 123.246094 372.058594 C 122.113281 371.585938 121.003906 371.0625 119.921875 370.484375 C 118.839844 369.90625 117.789062 369.273438 116.765625 368.59375 C 115.746094 367.910156 114.761719 367.179688 113.8125 366.402344 C 112.863281 365.625 111.957031 364.800781 111.089844 363.929688 C 110.222656 363.0625 109.398438 362.15625 108.621094 361.207031 C 107.839844 360.257812 107.109375 359.273438 106.429688 358.25 C 105.746094 357.230469 105.117188 356.179688 104.539062 355.097656 C 103.960938 354.015625 103.4375 352.90625 102.964844 351.773438 C 102.496094 350.636719 102.082031 349.484375 101.726562 348.308594 C 101.371094 347.132812 101.074219 345.945312 100.835938 344.738281 C 100.59375 343.535156 100.414062 342.324219 100.292969 341.101562 C 100.175781 339.878906 100.113281 338.65625 100.113281 337.429688 L 100.113281 324.933594 L 62.644531 324.933594 C 61.414062 324.933594 60.191406 324.875 58.96875 324.753906 C 57.75 324.632812 56.535156 324.453125 55.332031 324.214844 C 54.128906 323.972656 52.941406 323.675781 51.765625 323.320312 C 50.589844 322.964844 49.4375 322.550781 48.304688 322.082031 C 47.167969 321.609375 46.0625 321.085938 44.980469 320.507812 C 43.898438 319.929688 42.84375 319.300781 41.824219 318.617188 C 40.804688 317.933594 39.820312 317.203125 38.871094 316.425781 C 37.921875 315.648438 37.015625 314.824219 36.148438 313.957031 C 35.277344 313.085938 34.457031 312.179688 33.675781 311.230469 C 32.898438 310.28125 32.167969 309.296875 31.488281 308.277344 C 30.804688 307.253906 30.175781 306.203125 29.597656 305.121094 C 29.019531 304.039062 28.492188 302.929688 28.023438 301.796875 C 27.554688 300.660156 27.140625 299.507812 26.785156 298.332031 C 26.429688 297.15625 26.132812 295.96875 25.890625 294.765625 C 25.652344 293.558594 25.472656 292.347656 25.351562 291.125 C 25.230469 289.902344 25.171875 288.679688 25.171875 287.453125 L 25.171875 37.570312 C 25.171875 36.34375 25.230469 35.121094 25.351562 33.898438 C 25.472656 32.675781 25.652344 31.464844 25.890625 30.257812 C 26.132812 29.054688 26.429688 27.867188 26.785156 26.691406 C 27.140625 25.515625 27.554688 24.363281 28.023438 23.226562 C 28.492188 22.09375 29.019531 20.984375 29.597656 19.902344 C 30.175781 18.820312 30.804688 17.769531 31.488281 16.75 C 32.167969 15.726562 32.898438 14.742188 33.675781 13.792969 C 34.457031 12.84375 35.277344 11.9375 36.148438 11.066406 C 37.015625 10.199219 37.921875 9.375 38.871094 8.597656 C 39.820312 7.820312 40.804688 7.089844 41.824219 6.40625 C 42.84375 5.726562 43.898438 5.09375 44.980469 4.515625 C 46.0625 3.9375 47.167969 3.414062 48.304688 2.941406 C 49.4375 2.472656 50.589844 2.058594 51.765625 1.703125 C 52.941406 1.347656 54.128906 1.050781 55.332031 0.808594 C 56.535156 0.570312 57.75 0.390625 58.96875 0.269531 C 60.191406 0.148438 61.414062 0.0898438 62.644531 0.0898438 L 237.507812 0.0898438 C 238.734375 0.0898438 239.960938 0.148438 241.179688 0.269531 C 242.402344 0.390625 243.613281 0.570312 244.820312 0.808594 C 246.023438 1.050781 247.210938 1.347656 248.386719 1.703125 C 249.558594 2.058594 250.714844 2.472656 251.847656 2.941406 C 252.980469 3.414062 254.089844 3.9375 255.171875 4.515625 C 256.253906 5.09375 257.304688 5.726562 258.328125 6.40625 C 259.347656 7.089844 260.332031 7.820312 261.28125 8.597656 C 262.226562 9.375 263.136719 10.199219 264.003906 11.066406 C 264.871094 11.9375 265.695312 12.84375 266.472656 13.792969 C 267.253906 14.742188 267.984375 15.726562 268.664062 16.75 C 269.347656 17.769531 269.976562 18.820312 270.554688 19.902344 C 271.132812 20.984375 271.65625 22.09375 272.128906 23.226562 C 272.597656 24.363281 273.011719 25.515625 273.367188 26.691406 C 273.722656 27.867188 274.019531 29.054688 274.257812 30.257812 C 274.5 31.464844 274.679688 32.675781 274.800781 33.898438 C 274.917969 35.121094 274.980469 36.34375 274.980469 37.570312 L 274.980469 50.066406 L 312.449219 50.066406 C 313.679688 50.066406 314.902344 50.125 316.125 50.246094 C 317.34375 50.367188 318.558594 50.546875 319.761719 50.785156 C 320.964844 51.027344 322.152344 51.324219 323.328125 51.679688 C 324.503906 52.035156 325.65625 52.449219 326.789062 52.917969 C 327.925781 53.390625 329.03125 53.914062 330.113281 54.492188 C 331.195312 55.070312 332.25 55.699219 333.269531 56.382812 C 334.289062 57.066406 335.273438 57.796875 336.222656 58.574219 C 337.171875 59.351562 338.078125 60.175781 338.945312 61.042969 C 339.816406 61.914062 340.636719 62.820312 341.417969 63.769531 C 342.195312 64.71875 342.925781 65.703125 343.605469 66.722656 C 344.289062 67.746094 344.917969 68.796875 345.496094 69.878906 C 346.074219 70.960938 346.601562 72.070312 347.070312 73.203125 C 347.539062 74.339844 347.953125 75.492188 348.308594 76.667969 C 348.664062 77.84375 348.960938 79.03125 349.203125 80.234375 C 349.441406 81.441406 349.621094 82.652344 349.742188 83.875 C 349.863281 85.097656 349.921875 86.320312 349.921875 87.546875 Z M 250 37.570312 C 250 36.75 249.917969 35.9375 249.757812 35.132812 C 249.597656 34.328125 249.363281 33.546875 249.046875 32.789062 C 248.734375 32.03125 248.347656 31.3125 247.894531 30.628906 C 247.4375 29.949219 246.921875 29.316406 246.339844 28.738281 C 245.761719 28.15625 245.128906 27.640625 244.449219 27.183594 C 243.765625 26.726562 243.046875 26.34375 242.289062 26.027344 C 241.53125 25.714844 240.75 25.476562 239.945312 25.316406 C 239.140625 25.15625 238.328125 25.078125 237.507812 25.078125 L 62.644531 25.078125 C 61.824219 25.078125 61.011719 25.15625 60.207031 25.316406 C 59.402344 25.476562 58.621094 25.714844 57.863281 26.027344 C 57.105469 26.34375 56.386719 26.726562 55.703125 27.183594 C 55.023438 27.640625 54.390625 28.15625 53.8125 28.738281 C 53.230469 29.316406 52.714844 29.949219 52.257812 30.628906 C 51.800781 31.3125 51.417969 32.03125 51.101562 32.789062 C 50.789062 33.546875 50.550781 34.328125 50.394531 35.132812 C 50.234375 35.9375 50.152344 36.75 50.152344 37.570312 L 50.152344 287.453125 C 50.152344 288.273438 50.234375 289.085938 50.394531 289.890625 C 50.550781 290.695312 50.789062 291.476562 51.101562 292.234375 C 51.417969 292.992188 51.800781 293.710938 52.257812 294.394531 C 52.714844 295.074219 53.230469 295.707031 53.8125 296.285156 C 54.390625 296.867188 55.023438 297.382812 55.703125 297.839844 C 56.386719 298.296875 57.105469 298.679688 57.863281 298.996094 C 58.621094 299.308594 59.402344 299.546875 60.207031 299.707031 C 61.011719 299.867188 61.824219 299.945312 62.644531 299.945312 L 100.113281 299.945312 L 100.113281 87.546875 C 100.113281 86.320312 100.175781 85.097656 100.292969 83.875 C 100.414062 82.652344 100.59375 81.441406 100.835938 80.234375 C 101.074219 79.03125 101.371094 77.84375 101.726562 76.667969 C 102.082031 75.492188 102.496094 74.339844 102.964844 73.203125 C 103.4375 72.070312 103.960938 70.960938 104.539062 69.878906 C 105.117188 68.796875 105.746094 67.746094 106.429688 66.722656 C 107.109375 65.703125 107.839844 64.71875 108.621094 63.769531 C 109.398438 62.820312 110.222656 61.914062 111.089844 61.042969 C 111.957031 60.175781 112.863281 59.351562 113.8125 58.574219 C 114.761719 57.796875 115.746094 57.066406 116.765625 56.382812 C 117.789062 55.699219 118.839844 55.070312 119.921875 54.492188 C 121.003906 53.914062 122.113281 53.390625 123.246094 52.917969 C 124.378906 52.449219 125.535156 52.035156 126.707031 51.679688 C 127.882812 51.324219 129.070312 51.027344 130.273438 50.785156 C 131.480469 50.546875 132.691406 50.367188 133.914062 50.246094 C 135.132812 50.125 136.359375 50.066406 137.585938 50.066406 L 250 50.066406 Z M 324.941406 87.546875 C 324.941406 86.726562 324.859375 85.914062 324.699219 85.109375 C 324.542969 84.304688 324.304688 83.523438 323.992188 82.765625 C 323.675781 82.007812 323.292969 81.289062 322.835938 80.605469 C 322.378906 79.925781 321.863281 79.292969 321.28125 78.714844 C 320.703125 78.132812 320.070312 77.617188 319.390625 77.160156 C 318.707031 76.703125 317.988281 76.320312 317.230469 76.003906 C 316.472656 75.691406 315.691406 75.453125 314.886719 75.292969 C 314.082031 75.132812 313.269531 75.054688 312.449219 75.054688 L 137.585938 75.054688 C 136.765625 75.054688 135.953125 75.132812 135.148438 75.292969 C 134.34375 75.453125 133.5625 75.691406 132.804688 76.003906 C 132.046875 76.320312 131.328125 76.703125 130.644531 77.160156 C 129.964844 77.617188 129.332031 78.132812 128.753906 78.714844 C 128.171875 79.292969 127.65625 79.925781 127.199219 80.605469 C 126.746094 81.289062 126.359375 82.007812 126.046875 82.765625 C 125.730469 83.523438 125.496094 84.304688 125.335938 85.109375 C 125.175781 85.914062 125.09375 86.726562 125.09375 87.546875 L 125.09375 337.429688 C 125.09375 338.25 125.175781 339.0625 125.335938 339.867188 C 125.496094 340.667969 125.730469 341.449219 126.046875 342.210938 C 126.359375 342.96875 126.746094 343.6875 127.199219 344.367188 C 127.65625 345.050781 128.171875 345.683594 128.753906 346.261719 C 129.332031 346.84375 129.964844 347.359375 130.644531 347.816406 C 131.328125 348.273438 132.046875 348.65625 132.804688 348.972656 C 133.5625 349.285156 134.34375 349.523438 135.148438 349.683594 C 135.953125 349.839844 136.765625 349.921875 137.585938 349.921875 L 312.449219 349.921875 C 313.269531 349.921875 314.082031 349.839844 314.886719 349.683594 C 315.691406 349.523438 316.472656 349.285156 317.230469 348.972656 C 317.988281 348.65625 318.707031 348.273438 319.390625 347.816406 C 320.070312 347.359375 320.703125 346.84375 321.28125 346.261719 C 321.863281 345.683594 322.378906 345.050781 322.835938 344.367188 C 323.292969 343.6875 323.675781 342.96875 323.992188 342.210938 C 324.304688 341.449219 324.542969 340.667969 324.699219 339.867188 C 324.859375 339.0625 324.941406 338.25 324.941406 337.429688 Z M 324.941406 87.546875 " fill-opacity="1" fill-rule="nonzero"/></g></svg>