<svg xmlns="http://www.w3.org/2000/svg" xmlns:xlink="http://www.w3.org/1999/xlink" width="500" zoomAndPan="magnify" viewBox="0 0 375 374.999991" height="500" preserveAspectRatio="xMidYMid meet" version="1.0"><defs><clipPath id="99b1fc586d"><path d="M 7.265625 1 L 368.015625 1 L 368.015625 374 L 7.265625 374 Z M 7.265625 1 " clip-rule="nonzero"/></clipPath></defs><g clip-path="url(#99b1fc586d)"><path fill="#000000" d="M 354.203125 1.148438 L 338.003906 12.222656 C 253.285156 70.105469 166.53125 189.9375 123.253906 287.367188 C 116.566406 278.019531 114.546875 274.921875 108.070312 264.53125 C 81.609375 228.835938 48.0625 198.199219 32.140625 186.882812 L 7.265625 197.265625 L 8.054688 198.742188 C 25.226562 217.515625 55.367188 259.183594 100.785156 351.003906 C 103.566406 354.96875 106.535156 358.859375 109.917969 362.488281 C 118.804688 371.996094 127.917969 373.996094 134 373.996094 C 134.007812 373.996094 134.007812 373.996094 134.007812 373.996094 C 151.347656 373.996094 161.570312 360.324219 168.609375 344.316406 C 214.097656 175.6875 321.59375 59.59375 368.082031 19.835938 Z M 354.203125 1.148438 " fill-opacity="1" fill-rule="nonzero"/></g></svg>