<svg xmlns="http://www.w3.org/2000/svg" xmlns:xlink="http://www.w3.org/1999/xlink" version="1.1" width="1000" height="1000" viewBox="0 0 1000 1000" xml:space="preserve">
<desc>Created with Fabric.js 3.5.0</desc>
<defs>
</defs>
<rect x="0" y="0" width="100%" height="100%" fill="#ffffff"/>
<g transform="matrix(38.461 0 0 38.4567 500 500)" id="890094">
<path style="stroke: none; stroke-width: 1; stroke-dasharray: none; stroke-linecap: butt; stroke-dashoffset: 0; stroke-linejoin: miter; stroke-miterlimit: 4; is-custom-font: none; font-file-url: none; fill: rgb(0,0,0); fill-rule: nonzero; opacity: 1;" vector-effect="non-scaling-stroke" transform=" translate(-11.5003, -12.4992)" d="M 16.972 6.251 c -0.967 -0.538 -2.185 -0.188 -2.72 0.777 l -3.713 6.682 l -2.125 -2.125 c -0.781 -0.781 -2.047 -0.781 -2.828 0 c -0.781 0.781 -0.781 2.047 0 2.828 l 4 4 C 9.964 18.792 10.474 19 11 19 c 0.092 0 0.185 -0.006 0.277 -0.02 c 0.621 -0.087 1.166 -0.46 1.471 -1.009 l 5 -9 C 18.285 8.005 17.937 6.788 16.972 6.251 z" stroke-linecap="round"/>
</g>
</svg>